<?xml version="1.0" encoding="UTF-8"?>
<svg version="1.1" xmlns="http://www.w3.org/2000/svg" width="1024" height="1024">
<path d="M0 0 C337.92 0 675.84 0 1024 0 C1024 337.92 1024 675.84 1024 1024 C686.08 1024 348.16 1024 0 1024 C0 686.08 0 348.16 0 0 Z " fill="#FEFEFE" transform="translate(0,0)"/>
<path d="M0 0 C0.76600525 -0.00979385 1.5320105 -0.01958771 2.32122803 -0.02967834 C38.7192812 -0.39856202 72.84889124 5.32676197 104.6328125 24.11328125 C105.25905518 24.48235596 105.88529785 24.85143066 106.53051758 25.23168945 C110.7533753 27.84996966 110.7533753 27.84996966 111.8828125 31.23828125 C110.74115074 33.83106065 109.53921992 36.24445323 108.18359375 38.72265625 C107.79213669 39.45647522 107.40067963 40.19029419 106.99736023 40.9463501 C105.73938001 43.2988254 104.46747272 45.64344937 103.1953125 47.98828125 C102.35652122 49.55290291 101.51861996 51.11800206 100.68164062 52.68359375 C97.16211434 59.24989686 93.6012418 65.78214196 89.8828125 72.23828125 C85.36279679 71.63903674 81.83362902 69.74841395 77.8828125 67.61328125 C52.16411815 54.24162156 17.61762728 45.69294893 -11.1171875 53.23828125 C-18.54567147 55.94605051 -23.12311484 59.28001199 -27.21875 66.0625 C-29.29771549 71.09721208 -28.90272573 77.40658056 -27.46484375 82.58984375 C-23.35041895 91.73693409 -15.16626083 95.78178409 -6.265625 99.38671875 C3.64953699 103.12338802 14.03820642 105.56618736 24.26757812 108.27832031 C57.11564956 117.00053917 91.14656567 126.83350175 111.0078125 156.67578125 C120.98853827 174.46401024 121.6886398 196.68221678 116.8828125 216.23828125 C116.05105413 218.95282969 115.04592661 221.52469647 113.8828125 224.11328125 C113.5822998 224.78746094 113.28178711 225.46164062 112.97216797 226.15625 C104.01047085 245.27693778 87.56847984 257.44655995 68.2734375 265.08203125 C64.03632354 266.52694569 59.76751814 267.76288478 55.4453125 268.92578125 C54.31959839 269.22971802 54.31959839 269.22971802 53.17114258 269.53979492 C41.18693871 272.6098106 29.28605182 273.68123288 16.9453125 273.67578125 C15.84706146 273.676884 15.84706146 273.676884 14.72662354 273.67800903 C-21.32291913 273.58411228 -63.60700453 264.75025683 -92.1171875 241.23828125 C-91.50573384 236.99098475 -90.01839656 233.80989985 -87.984375 230.046875 C-87.66945099 229.46092056 -87.35452698 228.87496613 -87.03005981 228.27125549 C-86.36228428 227.03164588 -85.69138879 225.79371254 -85.01757812 224.55737305 C-84.01031962 222.7090537 -83.01209379 220.85610745 -82.015625 219.00195312 C-77.87202661 211.31962468 -73.56638657 203.74857777 -69.1171875 196.23828125 C-65.05822449 197.8122874 -61.41000869 199.71914135 -57.6171875 201.86328125 C-42.08426132 210.32037802 -25.35821695 215.56621689 -8.1171875 219.23828125 C-7.00601563 219.48449219 -5.89484375 219.73070312 -4.75 219.984375 C12.56719639 223.24540549 34.12051427 223.33104755 49.859375 214.625 C54.48380677 211.45574656 57.09971049 207.54882421 58.8828125 202.23828125 C59.62863388 195.95083359 59.70320028 189.59488955 56.37890625 184.0390625 C43.64617737 168.71324523 15.23208892 164.15376049 -3.1796875 159.80078125 C-31.97031237 152.89633353 -62.86855462 140.38842479 -79.1171875 114.23828125 C-83.15282687 106.91317541 -85.38870736 99.39016729 -87.1171875 91.23828125 C-87.3028125 90.48160156 -87.4884375 89.72492188 -87.6796875 88.9453125 C-90.85363786 69.30649463 -85.97186622 51.06119599 -75.390625 34.54296875 C-60.59799208 14.42218368 -35.75655786 4.71127443 -11.84399414 0.6875 C-7.88584464 0.21039583 -3.98081385 0.04214946 0 0 Z " fill="#010101" transform="translate(498.1171875,387.76171875)"/>
</svg>
